<svg width="26" height="26" viewBox="0 0 26 26" fill="none" xmlns="http://www.w3.org/2000/svg">
<path d="M14.2999 6.09998H8.90991V13.6V19C8.90991 19.2652 9.01527 19.5195 9.20281 19.7071C9.39034 19.8946 9.6447 20 9.90991 20C10.1751 20 10.4295 19.8946 10.617 19.7071C10.8046 19.5195 10.9099 19.2652 10.9099 19V17.2H15.7699C16.0351 17.2 16.2895 17.0946 16.477 16.9071C16.6646 16.7195 16.7699 16.4652 16.7699 16.2C16.7699 15.9348 16.6646 15.6804 16.477 15.4929C16.2895 15.3053 16.0351 15.2 15.7699 15.2H10.9099V13.6H14.2999C15.2584 13.6 16.1782 13.222 16.8597 12.548C17.5412 11.874 17.9294 10.9584 17.9399 9.99998V9.79998C17.9479 9.31694 17.8596 8.83715 17.6802 8.38858C17.5009 7.94 17.234 7.53162 16.8952 7.18723C16.5564 6.84285 16.1525 6.56935 15.7069 6.38268C15.2613 6.19601 14.783 6.09991 14.2999 6.09998ZM15.9399 9.99998C15.9295 10.428 15.7521 10.8349 15.4457 11.1339C15.1392 11.4328 14.728 11.6001 14.2999 11.6H10.9099V8.09998H14.2999C14.5161 8.09997 14.7302 8.14272 14.9298 8.22576C15.1295 8.30881 15.3107 8.4305 15.4631 8.58385C15.6155 8.7372 15.7361 8.91917 15.818 9.1193C15.8998 9.31943 15.9412 9.53377 15.9399 9.74998V9.99998Z" fill="black"/>
</svg>
