<svg width="26" height="26" viewBox="0 0 26 26" fill="none" xmlns="http://www.w3.org/2000/svg">
<path d="M4.05005 8.89H7.18005C7.39025 9.46915 7.77368 9.96954 8.27821 10.3232C8.78275 10.6768 9.38393 10.8665 10 10.8665C10.6162 10.8665 11.2173 10.6768 11.7219 10.3232C12.2264 9.96954 12.6098 9.46915 12.82 8.89H22C22.2653 8.89 22.5196 8.78464 22.7072 8.59711C22.8947 8.40957 23 8.15522 23 7.89C23 7.62478 22.8947 7.37043 22.7072 7.18289C22.5196 6.99536 22.2653 6.89 22 6.89H12.82C12.6098 6.31085 12.2264 5.81046 11.7219 5.45684C11.2173 5.10322 10.6162 4.91352 10 4.91352C9.38393 4.91352 8.78275 5.10322 8.27821 5.45684C7.77368 5.81046 7.39025 6.31085 7.18005 6.89H4.05005C3.78483 6.89 3.53048 6.99536 3.34294 7.18289C3.15541 7.37043 3.05005 7.62478 3.05005 7.89C3.05005 8.15522 3.15541 8.40957 3.34294 8.59711C3.53048 8.78464 3.78483 8.89 4.05005 8.89ZM10.05 6.89C10.3153 6.89 10.5696 6.99536 10.7572 7.18289C10.9447 7.37043 11.05 7.62478 11.05 7.89C11.05 8.15522 10.9447 8.40957 10.7572 8.59711C10.5696 8.78464 10.3153 8.89 10.05 8.89C9.78483 8.89 9.53048 8.78464 9.34294 8.59711C9.15541 8.40957 9.05005 8.15522 9.05005 7.89C9.05005 7.62478 9.15541 7.37043 9.34294 7.18289C9.53048 6.99536 9.78483 6.89 10.05 6.89Z" fill="black"/>
<path d="M22 17.11H18.82C18.6098 16.5308 18.2264 16.0305 17.7219 15.6768C17.2173 15.3232 16.6162 15.1335 16 15.1335C15.3839 15.1335 14.7828 15.3232 14.2782 15.6768C13.7737 16.0305 13.3903 16.5308 13.18 17.11H4.05005C3.78483 17.11 3.53048 17.2154 3.34294 17.4029C3.15541 17.5904 3.05005 17.8448 3.05005 18.11C3.05005 18.3752 3.15541 18.6296 3.34294 18.8171C3.53048 19.0046 3.78483 19.11 4.05005 19.11H13.18C13.3903 19.6892 13.7737 20.1895 14.2782 20.5432C14.7828 20.8968 15.3839 21.0865 16 21.0865C16.6162 21.0865 17.2173 20.8968 17.7219 20.5432C18.2264 20.1895 18.6098 19.6892 18.82 19.11H22C22.2653 19.11 22.5196 19.0046 22.7072 18.8171C22.8947 18.6296 23 18.3752 23 18.11C23 17.8448 22.8947 17.5904 22.7072 17.4029C22.5196 17.2154 22.2653 17.11 22 17.11ZM16.05 19.11C15.7848 19.11 15.5305 19.0046 15.3429 18.8171C15.1554 18.6296 15.05 18.3752 15.05 18.11C15.05 17.8448 15.1554 17.5904 15.3429 17.4029C15.5305 17.2154 15.7848 17.11 16.05 17.11C16.3153 17.11 16.5696 17.2154 16.7572 17.4029C16.9447 17.5904 17.05 17.8448 17.05 18.11C17.05 18.3752 16.9447 18.6296 16.7572 18.8171C16.5696 19.0046 16.3153 19.11 16.05 19.11Z" fill="black"/>
</svg>
