<svg width="26" height="26" viewBox="0 0 26 26" fill="none" xmlns="http://www.w3.org/2000/svg">
<path d="M12.5399 17.68C12.1767 17.7031 11.8125 17.653 11.4689 17.5328C11.1254 17.4126 10.8095 17.2246 10.5399 16.98C9.8199 16.27 9.4599 14.93 9.4599 12.98V9.00003L10.2099 9.58003C10.3877 9.70814 10.6008 9.77801 10.8199 9.78003C10.9726 9.77966 11.1232 9.74432 11.2602 9.67672C11.3971 9.60911 11.5167 9.51104 11.6099 9.39003C11.7648 9.17731 11.8297 8.9121 11.7904 8.6519C11.751 8.3917 11.6108 8.15748 11.3999 8.00003L8.9999 6.21003C8.82335 6.07052 8.60491 5.99463 8.3799 5.99463C8.15488 5.99463 7.93644 6.07052 7.7599 6.21003L5.5599 8.00003C5.4555 8.08276 5.36841 8.18525 5.30362 8.30163C5.23883 8.41802 5.19759 8.54603 5.18227 8.67835C5.16695 8.81068 5.17784 8.94472 5.21432 9.07284C5.2508 9.20095 5.31216 9.32063 5.3949 9.42503C5.47763 9.52943 5.58011 9.61651 5.6965 9.6813C5.81289 9.7461 5.9409 9.78733 6.07322 9.80265C6.20555 9.81798 6.33959 9.80708 6.46771 9.7706C6.59582 9.73412 6.7155 9.67276 6.8199 9.59003L7.4299 9.10003V13C7.4299 15.52 7.9699 17.28 9.0999 18.4C9.55223 18.8328 10.0876 19.1694 10.6737 19.3894C11.2599 19.6094 11.8845 19.7083 12.5099 19.68C12.7751 19.68 13.0295 19.5747 13.217 19.3871C13.4045 19.1996 13.5099 18.9452 13.5099 18.68C13.5099 18.4148 13.4045 18.1605 13.217 17.9729C13.0295 17.7854 12.7751 17.68 12.5099 17.68H12.5399Z" fill="black"/>
<path d="M20.5601 16.37C20.3995 16.1594 20.1619 16.0211 19.8994 15.9854C19.6369 15.9498 19.371 16.0198 19.1601 16.18L18.4701 16.71V12.71C18.4701 10.2 17.9201 8.42999 16.7901 7.30999C16.3404 6.87445 15.8076 6.53399 15.2234 6.30891C14.6393 6.08384 14.0157 5.97878 13.3901 5.99999H13.3401C13.0749 5.99999 12.8205 6.10535 12.633 6.29288C12.4454 6.48042 12.3401 6.73478 12.3401 6.99999C12.3401 7.26521 12.4454 7.51956 12.633 7.7071C12.8205 7.89463 13.0749 7.99999 13.3401 7.99999C13.7025 7.97726 14.0658 8.02653 14.4091 8.14496C14.7524 8.26339 15.0688 8.44863 15.3401 8.68999C16.0601 9.40999 16.4301 10.75 16.4301 12.69V16.75L15.7501 16.21C15.5441 16.0454 15.2814 15.9687 15.0192 15.9968C14.757 16.0249 14.5165 16.1554 14.3501 16.36C14.267 16.4623 14.205 16.58 14.1676 16.7063C14.1301 16.8327 14.118 16.9651 14.132 17.0962C14.1459 17.2272 14.1856 17.3542 14.2488 17.4698C14.312 17.5855 14.3974 17.6875 14.5001 17.77L16.7401 19.57C16.9187 19.7133 17.1411 19.791 17.3701 19.79C17.5865 19.79 17.797 19.7198 17.9701 19.59L20.3301 17.78C20.4389 17.7034 20.5313 17.6059 20.6019 17.4931C20.6725 17.3803 20.7199 17.2546 20.7414 17.1233C20.7628 16.992 20.7578 16.8577 20.7266 16.7284C20.6955 16.599 20.6389 16.4772 20.5601 16.37Z" fill="black"/>
</svg>
