<svg width="26" height="26" viewBox="0 0 26 26" fill="none" xmlns="http://www.w3.org/2000/svg">
<path d="M20.1199 18.81H6.87988V6.20001C6.87988 5.9348 6.77453 5.68044 6.58699 5.49291C6.39945 5.30537 6.1451 5.20001 5.87988 5.20001C5.61467 5.20001 5.36031 5.30537 5.17278 5.49291C4.98524 5.68044 4.87988 5.9348 4.87988 6.20001V19.81C4.87988 20.0752 4.98524 20.3296 5.17278 20.5171C5.36031 20.7047 5.61467 20.81 5.87988 20.81H20.1199C20.3851 20.81 20.6395 20.7047 20.827 20.5171C21.0145 20.3296 21.1199 20.0752 21.1199 19.81C21.1199 19.5448 21.0145 19.2904 20.827 19.1029C20.6395 18.9154 20.3851 18.81 20.1199 18.81Z" fill="black"/>
<path d="M21.0899 6.05C21.0994 5.97363 21.0994 5.89637 21.0899 5.82C21.0531 5.74087 21.006 5.66691 20.9499 5.6C20.9263 5.56898 20.9062 5.53544 20.8899 5.5C20.8148 5.4321 20.7307 5.37489 20.6399 5.33C20.6168 5.32542 20.593 5.32542 20.5699 5.33C20.5335 5.3242 20.4964 5.3242 20.4599 5.33C20.3672 5.31489 20.2727 5.31489 20.1799 5.33H12.1799C11.9147 5.33 11.6604 5.43536 11.4728 5.6229C11.2853 5.81043 11.1799 6.06479 11.1799 6.33C11.1799 6.59522 11.2853 6.84957 11.4728 7.03711C11.6604 7.22465 11.9147 7.33 12.1799 7.33H17.6899L11.4899 13.25C11.3962 13.343 11.3218 13.4536 11.271 13.5754C11.2203 13.6973 11.1941 13.828 11.1941 13.96C11.1941 14.092 11.2203 14.2227 11.271 14.3446C11.3218 14.4664 11.3962 14.577 11.4899 14.67C11.5829 14.7675 11.6946 14.8452 11.8183 14.8985C11.942 14.9518 12.0752 14.9795 12.2099 14.98C12.4674 14.979 12.7146 14.8787 12.8999 14.7L19.2099 8.7V14.36C19.2099 14.6252 19.3153 14.8796 19.5028 15.0671C19.6904 15.2546 19.9447 15.36 20.2099 15.36C20.4751 15.36 20.7295 15.2546 20.917 15.0671C21.1046 14.8796 21.2099 14.6252 21.2099 14.36V6.36C21.1954 6.24853 21.1542 6.1422 21.0899 6.05Z" fill="black"/>
</svg>
